<svg xmlns="http://www.w3.org/2000/svg" viewBox="350 800 320 440" width="320" height="440">
  <defs>
    <linearGradient id="g1" gradientUnits="userSpaceOnUse" x1="476.785" y1="1063.29" x2="575.194" y2="983.682">
      <stop offset="0" stop-color="rgb(220,197,254)"/>
      <stop offset="1" stop-color="rgb(254,214,254)"/>
    </linearGradient>
    <linearGradient id="g2" gradientUnits="userSpaceOnUse" x1="441.632" y1="1157.12" x2="621.562" y2="1025.81">
      <stop offset="0" stop-color="rgb(150,102,253)"/>
      <stop offset="1" stop-color="rgb(230,117,252)"/>
    </linearGradient>
    <linearGradient id="g3" gradientUnits="userSpaceOnUse" x1="439.557" y1="1025.7" x2="607.251" y2="885.482">
      <stop offset="0" stop-color="rgb(178,105,250)"/>
      <stop offset="1" stop-color="rgb(255,127,254)"/>
    </linearGradient>
  </defs>
  <path fill="url(#g3)" d="M 441.878 1023.44 C 427.483 1008.93 389.923 977.707 390.376 958.7 C 390.537 952.776 392.431 947.03 395.824 942.171 C 402.913 931.936 431.188 905.749 441.625 895.007 C 459.921 876.177 480.23 856.391 499.054 837.834 C 508.095 828.921 516.483 825.752 529.316 826.21 C 534.718 826.402 543.963 829.268 548.01 832.804 C 563.603 846.427 579.314 862.817 593.977 877.547 C 614.168 897.829 634.747 917.647 654.122 938.605 C 659.783 944.727 662.93 952.325 662.379 961.096 C 661.128 981.005 632.452 999.555 619.805 1014.39 C 617.141 1017.51 612.594 1021.27 610.743 1024.72 C 621.479 1033.63 630.448 1043.53 640.609 1052.97 C 655.472 1066.4 673.017 1087.21 655.102 1106.51 C 626.043 1137.82 594.887 1165.91 565.085 1196.86 C 546.009 1216.67 527.004 1233.3 500.086 1209.41 C 489.694 1200.18 477.529 1187.85 468.2 1177.33 C 458.775 1170.42 446.762 1154.79 437.35 1146.82 C 429.653 1138.7 421.044 1131.08 413.442 1122.9 C 399.74 1108.15 390.982 1104.93 390.474 1084.43 C 391.307 1077.09 394.019 1071.95 399.048 1066.61 C 412.821 1051.97 427.552 1037.85 441.881 1023.75 L 441.878 1023.44 z"/>
  <path fill="url(#g2)" d="M 390.474 1084.43 C 391.307 1077.09 394.019 1071.95 399.048 1066.61 C 412.821 1051.97 427.552 1037.85 441.881 1023.75 L 485.446 1067.3 C 524.666 1106.42 527.557 1107.34 567.325 1067.71 C 581.564 1053.4 595.885 1039.17 610.287 1025.02 L 610.743 1024.72 C 621.479 1033.63 630.448 1043.53 640.609 1052.97 C 655.472 1066.4 673.017 1087.21 655.102 1106.51 C 626.043 1137.82 594.887 1165.91 565.085 1196.86 C 546.009 1216.67 527.004 1233.3 500.086 1209.41 C 489.694 1200.18 477.529 1187.85 468.2 1177.33 C 458.775 1170.42 446.762 1154.79 437.35 1146.82 C 429.653 1138.7 421.044 1131.08 413.442 1122.9 C 399.74 1108.15 390.982 1104.93 390.474 1084.43 z"/>
  <path fill="rgb(152,98,254)" d="M 390.474 1084.43 C 399.641 1091.67 417.084 1109.95 416.252 1122.73 C 427.364 1136.31 443.222 1137.24 450.285 1156.29 C 450.183 1156.01 467.358 1173.64 469.265 1175.78 L 468.2 1177.33 C 458.775 1170.42 446.762 1154.79 437.35 1146.82 C 429.653 1138.7 421.044 1131.08 413.442 1122.9 C 399.74 1108.15 390.982 1104.93 390.474 1084.43 z"/>
  <path fill="url(#g1)" d="M 441.878 1023.44 L 482.422 983.439 C 507.669 958.316 526.06 934.278 557.702 970.78 C 565.364 979.619 608.627 1018.81 610.287 1025.02 C 595.885 1039.17 581.564 1053.4 567.325 1067.71 C 527.557 1107.34 524.666 1106.42 485.446 1067.3 L 441.881 1023.75 L 441.878 1023.44 z"/>
</svg>
